<svg xmlns="http://www.w3.org/2000/svg" width="1600" height="900" viewBox="0 0 1600 900">
  <rect width="1600" height="900" fill="#fff"/><style>text{font-family:Arial,'Apple SD Gothic Neo',sans-serif;fill:#18181b}.h{font-size:44px;font-weight:700}.l{font-size:31px;font-weight:700}.mono{font:26px Menlo,monospace;fill:#d4d4d8}.s{font-size:24px;fill:#71717a}</style>
  <text x="800" y="82" text-anchor="middle" class="h">같은 일을 하는 두 가지 인터페이스</text><line x1="800" y1="135" x2="800" y2="790" stroke="#e4e4e7" stroke-width="4"/>
  <text x="405" y="150" text-anchor="middle" class="l">CLI</text><text x="1195" y="150" text-anchor="middle" class="l">GUI</text>
  <rect x="120" y="190" width="570" height="500" rx="32" fill="#0e1524" stroke="#4f46e5" stroke-width="5"/><circle cx="165" cy="230" r="10" fill="#b91c1c"/><circle cx="198" cy="230" r="10" fill="#b45309"/><circle cx="231" cy="230" r="10" fill="#059669"/>
  <text x="170" y="315" class="mono">$ ls</text><text x="170" y="370" class="mono">notebooks   data</text><text x="170" y="425" class="mono">$ python chart.py</text><text x="170" y="480" class="mono">chart saved</text><rect x="170" y="525" width="20" height="34" fill="#eef2ff"/>
  <rect x="910" y="190" width="570" height="500" rx="32" fill="#f4f4f5" stroke="#4f46e5" stroke-width="5"/><rect x="950" y="245" width="370" height="330" rx="24" fill="#fff" stroke="#d4d4d8" stroke-width="4"/><rect x="950" y="245" width="370" height="52" rx="24" fill="#eef2ff"/><circle cx="990" cy="271" r="9" fill="#4f46e5"/>
  <g fill="#eef2ff" stroke="#4f46e5" stroke-width="3"><path d="M1000 360h90l22 25h120v105h-232z"/><rect x="1165" y="330" width="105" height="82" rx="18"/><circle cx="1217" cy="371" r="22" fill="#4f46e5"/></g><path d="M1300 515l54 28-29 10-13 31z" fill="#18181b"/>
  <g><circle cx="1030" cy="635" r="22" fill="#4f46e5"/><circle cx="1100" cy="635" r="22" fill="#a5b4fc"/><circle cx="1170" cy="635" r="22" fill="#059669"/><circle cx="1240" cy="635" r="22" fill="#b45309"/></g>
  <text x="405" y="755" text-anchor="middle" class="s">문자 명령을 입력해 조작한다</text><text x="1195" y="755" text-anchor="middle" class="s">창·아이콘·포인터로 조작한다</text>
</svg>
